<svg xmlns="http://www.w3.org/2000/svg" xmlns:xlink="http://www.w3.org/1999/xlink" width="40" zoomAndPan="magnify" viewBox="0 0 30 30.000001" height="40" preserveAspectRatio="xMidYMid meet" version="1.0"><defs><clipPath id="c35fe43601"><path d="M 0.484375 0 L 29.515625 0 L 29.515625 29.03125 L 0.484375 29.03125 Z M 0.484375 0 " clip-rule="nonzero"/></clipPath><clipPath id="5bbf79176c"><path d="M 0.484375 0 L 29.515625 0 L 29.515625 29.03125 L 0.484375 29.03125 Z M 0.484375 0 " clip-rule="nonzero"/></clipPath><clipPath id="bfd22bac28"><path d="M 3.734375 -3.292969 L 32.765625 3.242188 L 26.230469 32.273438 L -2.800781 25.742188 Z M 3.734375 -3.292969 " clip-rule="nonzero"/></clipPath><clipPath id="4adfdc8d78"><path d="M 3.734375 -3.292969 L 32.765625 3.242188 L 26.230469 32.273438 L -2.800781 25.742188 Z M 3.734375 -3.292969 " clip-rule="nonzero"/></clipPath><clipPath id="1b7c1bfa38"><path d="M 7 3 L 24 3 L 24 25 L 7 25 Z M 7 3 " clip-rule="nonzero"/></clipPath><clipPath id="45c692900f"><path d="M 3.734375 -3.292969 L 32.765625 3.242188 L 26.230469 32.273438 L -2.800781 25.742188 Z M 3.734375 -3.292969 " clip-rule="nonzero"/></clipPath><clipPath id="ae0c541733"><path d="M 3.734375 -3.292969 L 32.765625 3.242188 L 26.230469 32.273438 L -2.800781 25.742188 Z M 3.734375 -3.292969 " clip-rule="nonzero"/></clipPath></defs><g clip-path="url(#c35fe43601)"><path fill="#ffffff" d="M 0.484375 0 L 29.515625 0 L 29.515625 29.03125 L 0.484375 29.03125 Z M 0.484375 0 " fill-opacity="1" fill-rule="nonzero"/><path fill="#ffffff" d="M 0.484375 0 L 29.515625 0 L 29.515625 29.03125 L 0.484375 29.03125 Z M 0.484375 0 " fill-opacity="1" fill-rule="nonzero"/><path fill="#f97316" d="M 7.742188 0 L 22.257812 0 C 22.734375 0 23.207031 0.046875 23.675781 0.140625 C 24.140625 0.234375 24.59375 0.371094 25.035156 0.550781 C 25.476562 0.734375 25.894531 0.957031 26.289062 1.222656 C 26.6875 1.488281 27.054688 1.789062 27.390625 2.125 C 27.726562 2.460938 28.027344 2.828125 28.292969 3.226562 C 28.558594 3.621094 28.78125 4.039062 28.964844 4.480469 C 29.144531 4.921875 29.285156 5.375 29.375 5.84375 C 29.46875 6.308594 29.515625 6.78125 29.515625 7.257812 L 29.515625 21.773438 C 29.515625 22.25 29.46875 22.722656 29.375 23.191406 C 29.285156 23.65625 29.144531 24.113281 28.964844 24.550781 C 28.78125 24.992188 28.558594 25.410156 28.292969 25.804688 C 28.027344 26.203125 27.726562 26.570312 27.390625 26.90625 C 27.054688 27.242188 26.6875 27.542969 26.289062 27.808594 C 25.894531 28.074219 25.476562 28.296875 25.035156 28.480469 C 24.59375 28.664062 24.140625 28.800781 23.675781 28.894531 C 23.207031 28.984375 22.734375 29.03125 22.257812 29.03125 L 7.742188 29.03125 C 7.265625 29.03125 6.792969 28.984375 6.324219 28.894531 C 5.859375 28.800781 5.40625 28.664062 4.964844 28.480469 C 4.523438 28.296875 4.105469 28.074219 3.710938 27.808594 C 3.3125 27.542969 2.945312 27.242188 2.609375 26.90625 C 2.273438 26.570312 1.972656 26.203125 1.707031 25.804688 C 1.441406 25.410156 1.21875 24.992188 1.035156 24.550781 C 0.855469 24.113281 0.714844 23.65625 0.625 23.191406 C 0.53125 22.722656 0.484375 22.25 0.484375 21.773438 L 0.484375 7.257812 C 0.484375 6.78125 0.53125 6.308594 0.625 5.84375 C 0.714844 5.375 0.855469 4.921875 1.035156 4.480469 C 1.21875 4.039062 1.441406 3.621094 1.707031 3.226562 C 1.972656 2.828125 2.273438 2.460938 2.609375 2.125 C 2.945312 1.789062 3.3125 1.488281 3.710938 1.222656 C 4.105469 0.957031 4.523438 0.734375 4.964844 0.550781 C 5.40625 0.371094 5.859375 0.234375 6.324219 0.140625 C 6.792969 0.046875 7.265625 0 7.742188 0 Z M 7.742188 0 " fill-opacity="1" fill-rule="nonzero"/></g><path fill="#ffffff" d="M 12.925781 14.515625 C 12.925781 14.929688 12.847656 15.324219 12.691406 15.707031 C 12.53125 16.085938 12.308594 16.425781 12.015625 16.714844 C 11.722656 17.007812 11.386719 17.230469 11.007812 17.390625 C 10.625 17.546875 10.226562 17.625 9.816406 17.625 C 9.402344 17.625 9.007812 17.546875 8.625 17.390625 C 8.246094 17.230469 7.90625 17.007812 7.617188 16.714844 C 7.324219 16.425781 7.101562 16.085938 6.941406 15.707031 C 6.785156 15.324219 6.703125 14.929688 6.703125 14.515625 C 6.703125 14.105469 6.785156 13.707031 6.941406 13.324219 C 7.101562 12.945312 7.324219 12.609375 7.617188 12.316406 C 7.90625 12.023438 8.246094 11.800781 8.625 11.640625 C 9.007812 11.484375 9.402344 11.40625 9.816406 11.40625 C 10.226562 11.40625 10.625 11.484375 11.007812 11.640625 C 11.386719 11.800781 11.722656 12.023438 12.015625 12.316406 C 12.308594 12.609375 12.53125 12.945312 12.691406 13.324219 C 12.847656 13.707031 12.925781 14.105469 12.925781 14.515625 Z M 12.925781 14.515625 " fill-opacity="1" fill-rule="nonzero"/><path fill="#ffffff" d="M 23.296875 14.515625 C 23.296875 14.929688 23.214844 15.324219 23.058594 15.707031 C 22.898438 16.085938 22.675781 16.425781 22.382812 16.714844 C 22.09375 17.007812 21.753906 17.230469 21.375 17.390625 C 20.992188 17.546875 20.597656 17.625 20.183594 17.625 C 19.773438 17.625 19.375 17.546875 18.992188 17.390625 C 18.613281 17.230469 18.277344 17.007812 17.984375 16.714844 C 17.691406 16.425781 17.46875 16.085938 17.308594 15.707031 C 17.152344 15.324219 17.074219 14.929688 17.074219 14.515625 C 17.074219 14.105469 17.152344 13.707031 17.308594 13.324219 C 17.46875 12.945312 17.691406 12.609375 17.984375 12.316406 C 18.277344 12.023438 18.613281 11.800781 18.992188 11.640625 C 19.375 11.484375 19.773438 11.40625 20.183594 11.40625 C 20.597656 11.40625 20.992188 11.484375 21.375 11.640625 C 21.753906 11.800781 22.09375 12.023438 22.382812 12.316406 C 22.675781 12.609375 22.898438 12.945312 23.058594 13.324219 C 23.214844 13.707031 23.296875 14.105469 23.296875 14.515625 Z M 23.296875 14.515625 " fill-opacity="1" fill-rule="nonzero"/><path stroke-linecap="round" transform="matrix(1.036866, 0, 0, 1.036866, 0.48387, 0.00000193548)" fill="none" stroke-linejoin="miter" d="M 11.999531 13.999512 L 16.000469 13.999512 " stroke="#ffffff" stroke-width="2.4" stroke-opacity="1" stroke-miterlimit="4"/><g clip-path="url(#5bbf79176c)"><g clip-path="url(#bfd22bac28)"><g clip-path="url(#4adfdc8d78)"><path fill="#f97316" d="M 11.726562 29.042969 C 19.730469 30.847656 27.726562 25.789062 29.527344 17.785156 C 31.332031 9.777344 26.273438 1.78125 18.269531 -0.0195312 C 10.261719 -1.820312 2.265625 3.238281 0.464844 11.242188 C -1.339844 19.246094 3.71875 27.242188 11.726562 29.042969 Z M 11.726562 29.042969 " fill-opacity="1" fill-rule="evenodd"/></g></g></g><g clip-path="url(#1b7c1bfa38)"><g clip-path="url(#45c692900f)"><g clip-path="url(#ae0c541733)"><path fill="#fefefe" d="M 17.332031 4.136719 C 21.523438 5.082031 24.15625 9.242188 23.210938 13.433594 C 23.023438 14.265625 22.707031 15.039062 22.292969 15.730469 L 22.292969 15.734375 L 22.289062 15.734375 C 22.011719 16.199219 21.6875 16.628906 21.324219 17.019531 L 12.660156 24.886719 L 8.207031 14.070312 C 8.046875 13.558594 7.9375 13.03125 7.882812 12.492188 L 7.882812 12.488281 C 7.804688 11.683594 7.851562 10.851562 8.039062 10.015625 C 8.980469 5.828125 13.140625 3.195312 17.332031 4.136719 Z M 16.355469 8.472656 C 18.324219 8.917969 19.558594 10.871094 19.113281 12.835938 C 18.671875 14.804688 16.71875 16.039062 14.753906 15.597656 C 12.785156 15.152344 11.550781 13.199219 11.992188 11.234375 C 12.433594 9.265625 14.386719 8.03125 16.355469 8.472656 Z M 16.355469 8.472656 " fill-opacity="1" fill-rule="evenodd"/></g></g></g></svg>