<svg xmlns="http://www.w3.org/2000/svg" xmlns:xlink="http://www.w3.org/1999/xlink" width="200" zoomAndPan="magnify" viewBox="0 0 150 30.000001" height="40" preserveAspectRatio="xMidYMid meet" version="1.0"><defs><g/><clipPath id="e55e788604"><path d="M 2.417969 0 L 147.578125 0 L 147.578125 29.03125 L 2.417969 29.03125 Z M 2.417969 0 " clip-rule="nonzero"/></clipPath><clipPath id="13004126d3"><path d="M 116.625 8.710938 L 132.59375 8.710938 L 132.59375 20.324219 L 116.625 20.324219 Z M 116.625 8.710938 " clip-rule="nonzero"/></clipPath><clipPath id="f51514ab73"><path d="M 107 1 L 135 1 L 135 29 L 107 29 Z M 107 1 " clip-rule="nonzero"/></clipPath><clipPath id="bd9cb80900"><path d="M 110.519531 -1.617188 L 136.71875 4.277344 L 130.820312 30.480469 L 104.621094 24.582031 Z M 110.519531 -1.617188 " clip-rule="nonzero"/></clipPath><clipPath id="aecb77a65d"><path d="M 110.519531 -1.617188 L 136.71875 4.277344 L 130.820312 30.480469 L 104.621094 24.582031 Z M 110.519531 -1.617188 " clip-rule="nonzero"/></clipPath><clipPath id="9043a5705b"><path d="M 114 4 L 129 4 L 129 24 L 114 24 Z M 114 4 " clip-rule="nonzero"/></clipPath><clipPath id="d1d0109e89"><path d="M 110.519531 -1.617188 L 136.71875 4.277344 L 130.820312 30.480469 L 104.621094 24.582031 Z M 110.519531 -1.617188 " clip-rule="nonzero"/></clipPath><clipPath id="8e893a0fd4"><path d="M 110.519531 -1.617188 L 136.71875 4.277344 L 130.820312 30.480469 L 104.621094 24.582031 Z M 110.519531 -1.617188 " clip-rule="nonzero"/></clipPath></defs><g clip-path="url(#e55e788604)"><path fill="#ffffff" d="M 2.417969 0 L 147.582031 0 L 147.582031 29.03125 L 2.417969 29.03125 Z M 2.417969 0 " fill-opacity="1" fill-rule="nonzero"/><path fill="#ffffff" d="M 2.417969 0 L 147.582031 0 L 147.582031 29.03125 L 2.417969 29.03125 Z M 2.417969 0 " fill-opacity="1" fill-rule="nonzero"/></g><path fill="#f97316" d="M 114.339844 0.726562 L 127.402344 0.726562 C 127.878906 0.726562 128.351562 0.773438 128.820312 0.867188 C 129.285156 0.957031 129.742188 1.097656 130.179688 1.277344 C 130.621094 1.460938 131.039062 1.683594 131.4375 1.949219 C 131.832031 2.214844 132.199219 2.515625 132.535156 2.851562 C 132.871094 3.1875 133.171875 3.554688 133.4375 3.953125 C 133.703125 4.347656 133.925781 4.765625 134.109375 5.207031 C 134.292969 5.648438 134.429688 6.101562 134.523438 6.566406 C 134.613281 7.035156 134.660156 7.507812 134.660156 7.984375 L 134.660156 21.046875 C 134.660156 21.523438 134.613281 21.996094 134.523438 22.464844 C 134.429688 22.933594 134.292969 23.386719 134.109375 23.824219 C 133.925781 24.265625 133.703125 24.683594 133.4375 25.082031 C 133.171875 25.476562 132.871094 25.84375 132.535156 26.179688 C 132.199219 26.519531 131.832031 26.820312 131.4375 27.082031 C 131.039062 27.347656 130.621094 27.570312 130.179688 27.753906 C 129.742188 27.9375 129.285156 28.074219 128.820312 28.167969 C 128.351562 28.261719 127.878906 28.304688 127.402344 28.304688 L 114.339844 28.304688 C 113.863281 28.304688 113.390625 28.261719 112.921875 28.167969 C 112.457031 28.074219 112 27.9375 111.5625 27.753906 C 111.121094 27.570312 110.703125 27.347656 110.304688 27.082031 C 109.910156 26.820312 109.542969 26.519531 109.207031 26.179688 C 108.871094 25.84375 108.570312 25.476562 108.304688 25.082031 C 108.039062 24.683594 107.816406 24.265625 107.632812 23.824219 C 107.449219 23.386719 107.3125 22.933594 107.21875 22.464844 C 107.128906 21.996094 107.082031 21.523438 107.082031 21.046875 L 107.082031 7.984375 C 107.082031 7.507812 107.128906 7.035156 107.21875 6.566406 C 107.3125 6.101562 107.449219 5.648438 107.632812 5.207031 C 107.816406 4.765625 108.039062 4.347656 108.304688 3.953125 C 108.570312 3.554688 108.871094 3.1875 109.207031 2.851562 C 109.542969 2.515625 109.910156 2.214844 110.304688 1.949219 C 110.703125 1.683594 111.121094 1.460938 111.5625 1.277344 C 112 1.097656 112.457031 0.957031 112.921875 0.867188 C 113.390625 0.773438 113.863281 0.726562 114.339844 0.726562 Z M 114.339844 0.726562 " fill-opacity="1" fill-rule="nonzero"/><path fill="#f97316" d="M 120.144531 14.515625 C 120.144531 14.902344 120.070312 15.269531 119.925781 15.628906 C 119.777344 15.984375 119.566406 16.296875 119.292969 16.570312 C 119.023438 16.839844 118.707031 17.050781 118.351562 17.199219 C 117.996094 17.34375 117.625 17.417969 117.242188 17.417969 C 116.855469 17.417969 116.488281 17.34375 116.132812 17.199219 C 115.773438 17.050781 115.460938 16.839844 115.1875 16.570312 C 114.917969 16.296875 114.707031 15.984375 114.558594 15.628906 C 114.414062 15.269531 114.339844 14.902344 114.339844 14.515625 C 114.339844 14.132812 114.414062 13.761719 114.558594 13.40625 C 114.707031 13.050781 114.917969 12.734375 115.1875 12.464844 C 115.460938 12.191406 115.773438 11.980469 116.132812 11.832031 C 116.488281 11.6875 116.855469 11.613281 117.242188 11.613281 C 117.625 11.613281 117.996094 11.6875 118.351562 11.832031 C 118.707031 11.980469 119.023438 12.191406 119.292969 12.464844 C 119.566406 12.734375 119.777344 13.050781 119.925781 13.40625 C 120.070312 13.761719 120.144531 14.132812 120.144531 14.515625 Z M 120.144531 14.515625 " fill-opacity="1" fill-rule="nonzero"/><path fill="#f97316" d="M 133.210938 14.515625 C 133.210938 14.902344 133.136719 15.269531 132.988281 15.628906 C 132.839844 15.984375 132.632812 16.296875 132.359375 16.570312 C 132.085938 16.839844 131.773438 17.050781 131.417969 17.199219 C 131.0625 17.34375 130.691406 17.417969 130.304688 17.417969 C 129.921875 17.417969 129.550781 17.34375 129.195312 17.199219 C 128.839844 17.050781 128.527344 16.839844 128.253906 16.570312 C 127.980469 16.296875 127.773438 15.984375 127.625 15.628906 C 127.476562 15.269531 127.402344 14.902344 127.402344 14.515625 C 127.402344 14.132812 127.476562 13.761719 127.625 13.40625 C 127.773438 13.050781 127.980469 12.734375 128.253906 12.464844 C 128.527344 12.191406 128.839844 11.980469 129.195312 11.832031 C 129.550781 11.6875 129.921875 11.613281 130.304688 11.613281 C 130.691406 11.613281 131.0625 11.6875 131.417969 11.832031 C 131.773438 11.980469 132.085938 12.191406 132.359375 12.464844 C 132.632812 12.734375 132.839844 13.050781 132.988281 13.40625 C 133.136719 13.761719 133.210938 14.132812 133.210938 14.515625 Z M 133.210938 14.515625 " fill-opacity="1" fill-rule="nonzero"/><path stroke-linecap="round" transform="matrix(0.725806, 0, 0, 0.725806, 95.467739, 0.00000193548)" fill="none" stroke-linejoin="miter" d="M 35.000178 19.999303 L 42.997748 19.999303 " stroke="#ffffff" stroke-width="3" stroke-opacity="1" stroke-miterlimit="4"/><g clip-path="url(#13004126d3)"><path fill="#f97316" d="M 130.414062 11.613281 L 128.238281 11.613281 L 128.238281 8.710938 L 118.078125 8.710938 C 117.273438 8.710938 116.625 9.359375 116.625 10.160156 L 116.625 18.144531 L 118.078125 18.144531 C 118.078125 19.347656 119.054688 20.324219 120.253906 20.324219 C 121.457031 20.324219 122.429688 19.347656 122.429688 18.144531 L 126.785156 18.144531 C 126.785156 19.347656 127.761719 20.324219 128.964844 20.324219 C 130.164062 20.324219 131.140625 19.347656 131.140625 18.144531 L 132.59375 18.144531 L 132.59375 14.515625 Z M 120.253906 19.234375 C 119.652344 19.234375 119.164062 18.746094 119.164062 18.144531 C 119.164062 17.542969 119.652344 17.054688 120.253906 17.054688 C 120.855469 17.054688 121.34375 17.542969 121.34375 18.144531 C 121.34375 18.746094 120.855469 19.234375 120.253906 19.234375 Z M 130.050781 12.703125 L 131.480469 14.515625 L 128.238281 14.515625 L 128.238281 12.703125 Z M 128.964844 19.234375 C 128.359375 19.234375 127.875 18.746094 127.875 18.144531 C 127.875 17.542969 128.359375 17.054688 128.964844 17.054688 C 129.566406 17.054688 130.050781 17.542969 130.050781 18.144531 C 130.050781 18.746094 129.566406 19.234375 128.964844 19.234375 Z M 128.964844 19.234375 " fill-opacity="1" fill-rule="nonzero"/></g><g clip-path="url(#f51514ab73)"><g clip-path="url(#bd9cb80900)"><g clip-path="url(#aecb77a65d)"><path fill="#f97316" d="M 117.757812 27.675781 C 125.011719 29.308594 132.253906 24.726562 133.886719 17.476562 C 135.519531 10.222656 130.9375 2.976562 123.6875 1.347656 C 116.433594 -0.285156 109.1875 4.296875 107.554688 11.546875 C 105.921875 18.800781 110.503906 26.042969 117.757812 27.675781 Z M 117.757812 27.675781 " fill-opacity="1" fill-rule="evenodd"/></g></g></g><g clip-path="url(#9043a5705b)"><g clip-path="url(#d1d0109e89)"><g clip-path="url(#8e893a0fd4)"><path fill="#fefefe" d="M 122.835938 5.113281 C 126.632812 5.96875 129.019531 9.738281 128.164062 13.535156 C 127.996094 14.289062 127.707031 14.988281 127.332031 15.617188 L 127.328125 15.621094 C 127.078125 16.039062 126.78125 16.429688 126.453125 16.785156 L 118.605469 23.910156 L 114.570312 14.109375 C 114.425781 13.648438 114.324219 13.171875 114.277344 12.679688 C 114.207031 11.949219 114.246094 11.195312 114.417969 10.441406 C 115.269531 6.644531 119.042969 4.257812 122.835938 5.113281 Z M 121.953125 9.039062 C 123.734375 9.441406 124.855469 11.210938 124.453125 12.992188 C 124.050781 14.773438 122.28125 15.894531 120.5 15.496094 C 118.71875 15.09375 117.601562 13.324219 118 11.542969 C 118.402344 9.757812 120.171875 8.640625 121.953125 9.039062 Z M 121.953125 9.039062 " fill-opacity="1" fill-rule="evenodd"/></g></g></g><g fill="#000000" fill-opacity="1"><g transform="translate(37.590412, 21.270137)"><g><path d="M 6.9375 -12.90625 C 6.5625 -12.90625 6.238281 -13.039062 5.96875 -13.3125 C 5.707031 -13.582031 5.578125 -13.898438 5.578125 -14.265625 C 5.578125 -14.671875 5.707031 -15.003906 5.96875 -15.265625 C 6.238281 -15.523438 6.5625 -15.65625 6.9375 -15.65625 C 7.332031 -15.65625 7.660156 -15.523438 7.921875 -15.265625 C 8.191406 -15.003906 8.328125 -14.671875 8.328125 -14.265625 C 8.328125 -13.898438 8.191406 -13.582031 7.921875 -13.3125 C 7.660156 -13.039062 7.332031 -12.90625 6.9375 -12.90625 Z M 10.9375 -12.90625 C 10.5625 -12.90625 10.234375 -13.039062 9.953125 -13.3125 C 9.679688 -13.582031 9.546875 -13.898438 9.546875 -14.265625 C 9.546875 -14.671875 9.679688 -15.003906 9.953125 -15.265625 C 10.234375 -15.523438 10.5625 -15.65625 10.9375 -15.65625 C 11.332031 -15.65625 11.65625 -15.523438 11.90625 -15.265625 C 12.164062 -15.003906 12.296875 -14.671875 12.296875 -14.265625 C 12.296875 -13.898438 12.164062 -13.582031 11.90625 -13.3125 C 11.65625 -13.039062 11.332031 -12.90625 10.9375 -12.90625 Z M 14.53125 -2.53125 L 15.1875 -2.53125 L 15.1875 0.5 L 14.734375 0.5 C 13.847656 0.5 13.144531 0.320312 12.625 -0.03125 C 12.113281 -0.382812 11.722656 -0.851562 11.453125 -1.4375 C 10.867188 -0.8125 10.171875 -0.332031 9.359375 0 C 8.546875 0.332031 7.695312 0.5 6.8125 0.5 C 5.664062 0.5 4.691406 0.289062 3.890625 -0.125 C 3.097656 -0.550781 2.472656 -1.113281 2.015625 -1.8125 C 1.566406 -2.507812 1.285156 -3.273438 1.171875 -4.109375 C 1.054688 -4.941406 1.109375 -5.773438 1.328125 -6.609375 C 1.546875 -7.441406 1.925781 -8.207031 2.46875 -8.90625 C 3.007812 -9.601562 3.707031 -10.160156 4.5625 -10.578125 C 5.425781 -11.003906 6.441406 -11.21875 7.609375 -11.21875 L 11.59375 -11.21875 C 11.976562 -11.21875 12.3125 -11.070312 12.59375 -10.78125 C 12.875 -10.5 13.015625 -10.132812 13.015625 -9.6875 L 13.015625 -4.296875 C 13.015625 -3.679688 13.113281 -3.234375 13.3125 -2.953125 C 13.507812 -2.671875 13.914062 -2.53125 14.53125 -2.53125 Z M 10.171875 -5.640625 L 10.171875 -8.171875 L 7.421875 -8.171875 C 6.671875 -8.171875 6.035156 -8.035156 5.515625 -7.765625 C 4.992188 -7.492188 4.597656 -7.144531 4.328125 -6.71875 C 4.054688 -6.289062 3.898438 -5.835938 3.859375 -5.359375 C 3.828125 -4.878906 3.914062 -4.425781 4.125 -4 C 4.332031 -3.570312 4.660156 -3.21875 5.109375 -2.9375 C 5.554688 -2.664062 6.125 -2.53125 6.8125 -2.53125 C 7.425781 -2.53125 7.984375 -2.644531 8.484375 -2.875 C 8.992188 -3.113281 9.398438 -3.460938 9.703125 -3.921875 C 10.015625 -4.378906 10.171875 -4.953125 10.171875 -5.640625 Z M 10.171875 -5.640625 "/></g></g></g><g fill="#000000" fill-opacity="1"><g transform="translate(52.781292, 21.270137)"><g><path d="M 5.46875 -11.71875 C 5.101562 -11.71875 4.78125 -11.847656 4.5 -12.109375 C 4.226562 -12.378906 4.09375 -12.703125 4.09375 -13.078125 C 4.09375 -13.472656 4.226562 -13.800781 4.5 -14.0625 C 4.78125 -14.320312 5.101562 -14.453125 5.46875 -14.453125 C 5.875 -14.453125 6.203125 -14.320312 6.453125 -14.0625 C 6.703125 -13.800781 6.828125 -13.472656 6.828125 -13.078125 C 6.828125 -12.703125 6.703125 -12.378906 6.453125 -12.109375 C 6.203125 -11.847656 5.875 -11.71875 5.46875 -11.71875 Z M 8.4375 -2.53125 L 9.09375 -2.53125 L 9.09375 0.5 L 8.640625 0.5 C 7.941406 0.5 7.359375 0.382812 6.890625 0.15625 C 6.429688 -0.0703125 6.050781 -0.378906 5.75 -0.765625 C 5.394531 -0.378906 4.953125 -0.0703125 4.421875 0.15625 C 3.898438 0.382812 3.265625 0.5 2.515625 0.5 L -0.1875 0.5 C -0.632812 0.5 -1.015625 0.363281 -1.328125 0.09375 C -1.640625 -0.164062 -1.796875 -0.535156 -1.796875 -1.015625 C -1.796875 -1.492188 -1.640625 -1.863281 -1.328125 -2.125 C -1.015625 -2.394531 -0.632812 -2.53125 -0.1875 -2.53125 L 2.515625 -2.53125 C 3.128906 -2.53125 3.535156 -2.671875 3.734375 -2.953125 C 3.929688 -3.234375 4.03125 -3.679688 4.03125 -4.296875 L 4.03125 -9.28125 C 4.03125 -9.539062 4.109375 -9.753906 4.265625 -9.921875 C 4.429688 -10.085938 4.625 -10.171875 4.84375 -10.171875 L 6.109375 -10.171875 C 6.335938 -10.171875 6.53125 -10.085938 6.6875 -9.921875 C 6.84375 -9.753906 6.921875 -9.539062 6.921875 -9.28125 L 6.921875 -4.296875 C 6.921875 -3.679688 7.019531 -3.234375 7.21875 -2.953125 C 7.414062 -2.671875 7.820312 -2.53125 8.4375 -2.53125 Z M 8.4375 -2.53125 "/></g></g></g><g fill="#000000" fill-opacity="1"><g transform="translate(61.875835, 21.270137)"><g><path d="M 16.609375 -2.53125 L 19.34375 -2.53125 L 19.34375 0.5 L 17.015625 0.5 C 15.921875 0.5 15.039062 0.238281 14.375 -0.28125 C 13.707031 -0.8125 13.238281 -1.488281 12.96875 -2.3125 L 10.140625 0.125 L 10.15625 0.09375 C 10.019531 0.226562 9.859375 0.328125 9.671875 0.390625 C 9.492188 0.460938 9.328125 0.5 9.171875 0.5 L -0.1875 0.5 C -0.632812 0.5 -1.015625 0.363281 -1.328125 0.09375 C -1.640625 -0.164062 -1.796875 -0.535156 -1.796875 -1.015625 C -1.796875 -1.492188 -1.640625 -1.863281 -1.328125 -2.125 C -1.015625 -2.394531 -0.632812 -2.53125 -0.1875 -2.53125 L 8.53125 -2.53125 C 8.625 -2.53125 8.695312 -2.5625 8.75 -2.625 L 14.96875 -7.421875 C 15.125 -7.535156 15.15625 -7.691406 15.0625 -7.890625 L 15.015625 -8 C 14.960938 -8.113281 14.859375 -8.171875 14.703125 -8.171875 L 7.78125 -8.171875 C 7.175781 -8.171875 6.617188 -8.035156 6.109375 -7.765625 C 5.609375 -7.503906 5.203125 -7.15625 4.890625 -6.71875 C 4.578125 -6.28125 4.421875 -5.785156 4.421875 -5.234375 C 4.421875 -5.140625 4.316406 -5.070312 4.109375 -5.03125 C 3.898438 -5 3.648438 -5 3.359375 -5.03125 C 3.066406 -5.070312 2.785156 -5.160156 2.515625 -5.296875 C 2.253906 -5.429688 2.050781 -5.617188 1.90625 -5.859375 C 1.769531 -6.109375 1.753906 -6.425781 1.859375 -6.8125 C 2.109375 -7.675781 2.523438 -8.4375 3.109375 -9.09375 C 3.691406 -9.757812 4.382812 -10.28125 5.1875 -10.65625 C 5.988281 -11.03125 6.851562 -11.21875 7.78125 -11.21875 L 15.09375 -11.21875 C 15.570312 -11.21875 15.976562 -10.976562 16.3125 -10.5 L 17.703125 -8.03125 C 17.847656 -7.769531 17.890625 -7.445312 17.828125 -7.0625 C 17.773438 -6.6875 17.640625 -6.390625 17.421875 -6.171875 L 17.40625 -6.15625 L 14.953125 -4.03125 C 14.992188 -3.539062 15.144531 -3.164062 15.40625 -2.90625 C 15.664062 -2.65625 16.066406 -2.53125 16.609375 -2.53125 Z M 16.609375 -2.53125 "/></g></g></g><g fill="#000000" fill-opacity="1"><g transform="translate(81.224209, 21.270137)"><g><path d="M 10.640625 -17.328125 C 11.078125 -17.328125 11.4375 -17.175781 11.71875 -16.875 C 12.007812 -16.570312 12.15625 -16.210938 12.15625 -15.796875 C 12.15625 -15.378906 12.007812 -15.019531 11.71875 -14.71875 C 11.4375 -14.414062 11.078125 -14.265625 10.640625 -14.265625 C 10.222656 -14.265625 9.867188 -14.414062 9.578125 -14.71875 C 9.285156 -15.019531 9.140625 -15.378906 9.140625 -15.796875 C 9.140625 -16.210938 9.285156 -16.570312 9.578125 -16.875 C 9.867188 -17.175781 10.222656 -17.328125 10.640625 -17.328125 Z M 8.453125 -14.265625 C 8.867188 -14.265625 9.222656 -14.117188 9.515625 -13.828125 C 9.816406 -13.546875 9.96875 -13.191406 9.96875 -12.765625 C 9.96875 -12.335938 9.816406 -11.972656 9.515625 -11.671875 C 9.222656 -11.378906 8.867188 -11.234375 8.453125 -11.234375 C 8.015625 -11.234375 7.648438 -11.378906 7.359375 -11.671875 C 7.078125 -11.972656 6.9375 -12.335938 6.9375 -12.765625 C 6.9375 -13.191406 7.078125 -13.546875 7.359375 -13.828125 C 7.648438 -14.117188 8.015625 -14.265625 8.453125 -14.265625 Z M 12.84375 -14.265625 C 13.269531 -14.265625 13.625 -14.117188 13.90625 -13.828125 C 14.195312 -13.546875 14.34375 -13.191406 14.34375 -12.765625 C 14.34375 -12.335938 14.195312 -11.972656 13.90625 -11.671875 C 13.625 -11.378906 13.269531 -11.234375 12.84375 -11.234375 C 12.425781 -11.234375 12.066406 -11.378906 11.765625 -11.671875 C 11.460938 -11.972656 11.3125 -12.335938 11.3125 -12.765625 C 11.3125 -13.191406 11.460938 -13.546875 11.765625 -13.828125 C 12.066406 -14.117188 12.425781 -14.265625 12.84375 -14.265625 Z M 16.53125 -10.859375 L 16.515625 -10.859375 C 17.023438 -10.921875 17.335938 -10.664062 17.453125 -10.09375 L 17.453125 -10.078125 L 18.265625 -3.59375 C 18.359375 -2.851562 18.238281 -2.171875 17.90625 -1.546875 C 17.570312 -0.929688 17.101562 -0.4375 16.5 -0.0625 C 15.894531 0.3125 15.21875 0.5 14.46875 0.5 L 12.828125 0.5 C 12.390625 0.5 11.96875 0.410156 11.5625 0.234375 C 11.15625 0.0664062 10.78125 -0.203125 10.4375 -0.578125 C 10.101562 -0.203125 9.726562 0.0664062 9.3125 0.234375 C 8.894531 0.410156 8.46875 0.5 8.03125 0.5 L 7.0625 0.5 C 6.550781 0.5 6.054688 0.425781 5.578125 0.28125 C 5.097656 0.132812 4.65625 -0.164062 4.25 -0.625 C 3.851562 -0.15625 3.453125 0.144531 3.046875 0.28125 C 2.648438 0.425781 2.238281 0.5 1.8125 0.5 L -0.1875 0.5 C -0.632812 0.5 -1.015625 0.363281 -1.328125 0.09375 C -1.640625 -0.164062 -1.796875 -0.535156 -1.796875 -1.015625 C -1.796875 -1.492188 -1.640625 -1.863281 -1.328125 -2.125 C -1.015625 -2.394531 -0.632812 -2.53125 -0.1875 -2.53125 L 1.8125 -2.53125 C 2.125 -2.53125 2.363281 -2.609375 2.53125 -2.765625 C 2.707031 -2.929688 2.796875 -3.140625 2.796875 -3.390625 L 2.796875 -7.875 C 2.796875 -8.144531 2.875 -8.363281 3.03125 -8.53125 C 3.195312 -8.695312 3.382812 -8.78125 3.59375 -8.78125 L 4.8125 -8.78125 C 5.039062 -8.78125 5.234375 -8.695312 5.390625 -8.53125 C 5.554688 -8.363281 5.640625 -8.144531 5.640625 -7.875 L 5.640625 -3.390625 C 5.640625 -3.140625 5.726562 -2.929688 5.90625 -2.765625 C 6.082031 -2.609375 6.316406 -2.53125 6.609375 -2.53125 L 8.03125 -2.53125 C 8.34375 -2.53125 8.582031 -2.609375 8.75 -2.765625 C 8.925781 -2.929688 9.015625 -3.140625 9.015625 -3.390625 L 9.015625 -8.671875 C 9.015625 -8.941406 9.09375 -9.160156 9.25 -9.328125 C 9.414062 -9.492188 9.601562 -9.578125 9.8125 -9.578125 L 11.046875 -9.578125 C 11.273438 -9.578125 11.46875 -9.492188 11.625 -9.328125 C 11.789062 -9.160156 11.875 -8.941406 11.875 -8.671875 L 11.875 -3.390625 C 11.875 -3.140625 11.957031 -2.929688 12.125 -2.765625 C 12.300781 -2.609375 12.535156 -2.53125 12.828125 -2.53125 L 14.46875 -2.53125 C 14.757812 -2.53125 15 -2.601562 15.1875 -2.75 C 15.375 -2.90625 15.457031 -3.085938 15.4375 -3.296875 L 14.609375 -9.6875 L 14.609375 -9.71875 C 14.597656 -9.957031 14.664062 -10.171875 14.8125 -10.359375 C 14.957031 -10.554688 15.117188 -10.675781 15.296875 -10.71875 L 15.328125 -10.71875 Z M 16.53125 -10.859375 "/></g></g></g></svg>